M48
; DRILL file {KiCad (5.1.9)-1} date 02/27/21 22:52:35
; FORMAT={-:-/ absolute / inch / decimal}
; #@! TF.CreationDate,2021-02-27T22:52:35+01:00
; #@! TF.GenerationSoftware,Kicad,Pcbnew,(5.1.9)-1
FMAT,2
INCH
T1C0.0157
T2C0.0315
%
G90
G05
T1
X3.64Y-3.54
X4.18Y-3.72
X5.29Y-3.84
X5.41Y-3.84
T2
X3.2Y-3.3
X3.2Y-3.9
X3.3Y-3.3
X3.3Y-3.9
X3.4Y-3.3
X3.4Y-3.9
X3.5Y-3.3
X3.5Y-3.9
X3.6Y-3.3
X3.6Y-3.9
X3.7Y-3.3
X3.7Y-3.9
X3.8Y-3.3
X3.8Y-3.9
X3.9Y-3.3
X3.9Y-3.9
X4.0Y-3.3
X4.0Y-3.9
X4.1Y-3.3
X4.1Y-3.9
X4.2Y-3.3
X4.2Y-3.9
X4.3Y-3.3
X4.3Y-3.9
X4.4Y-3.3
X4.4Y-3.9
X4.5Y-3.3
X4.5Y-3.9
X4.6Y-3.3
X4.6Y-3.9
X4.7Y-3.3
X4.7Y-3.9
X4.8Y-3.3
X4.8Y-3.9
X4.9Y-3.3
X4.9Y-3.9
X5.0Y-3.3
X5.0Y-3.9
X5.1Y-3.3
X5.1Y-3.9
X7.5Y-3.3
X7.5Y-3.9
X7.6Y-3.3
X7.6Y-3.9
X7.7Y-3.3
X7.7Y-3.9
X7.8Y-3.3
X7.8Y-3.9
X7.9Y-3.3
X7.9Y-3.9
X8.0Y-3.3
X8.0Y-3.9
X8.1Y-3.3
X8.1Y-3.9
X8.2Y-3.3
X8.2Y-3.9
X8.3Y-3.3
X8.3Y-3.9
X8.4Y-3.3
X8.4Y-3.9
X8.5Y-3.3
X8.5Y-3.9
X8.6Y-3.3
X8.6Y-3.9
X8.7Y-3.3
X8.7Y-3.9
X8.8Y-3.3
X8.8Y-3.9
X8.9Y-3.3
X8.9Y-3.9
X9.0Y-3.3
X9.0Y-3.9
X9.1Y-3.3
X9.1Y-3.9
X9.2Y-3.3
X9.2Y-3.9
X9.3Y-3.3
X9.3Y-3.9
X9.4Y-3.3
X9.4Y-3.9
T0
M30
